<svg width="142" height="154" viewBox="0 0 142 154" fill="none" xmlns="http://www.w3.org/2000/svg">
<g clip-path="url(#clip0_664_12)">
<path d="M27.4723 101.552L11.4907 92.5506C10.8241 92.1751 10 92.6568 10 93.4219V105.663C10 106.746 10.5838 107.745 11.5274 108.276L27.5091 117.281C28.1757 117.656 29 117.175 29 116.41V104.166C29 103.083 28.4161 102.084 27.4723 101.552Z" fill="#180B02" stroke="#180B02" stroke-width="2"/>
<path d="M73.4542 2.53044L138.416 39.1288C139.095 39.5112 139.095 40.4888 138.416 40.8712L73.4542 77.4696C71.9306 78.3279 70.0694 78.3279 68.5458 77.4696L3.58377 40.8712C2.9049 40.4888 2.9049 39.5112 3.58377 39.1288L68.5458 2.53043C70.0694 1.67209 71.9306 1.67209 73.4542 2.53044Z" fill="#180B02" stroke="#180B02" stroke-width="2"/>
<path d="M27.4723 69.5521L11.4907 60.5506C10.8241 60.1751 10 60.6568 10 61.4219V73.6625C10 74.7456 10.5838 75.7445 11.5274 76.2762L27.5091 85.2808C28.1757 85.6564 29 85.1747 29 84.4096V72.166C29 71.0828 28.4161 70.0837 27.4723 69.5521Z" fill="#180B02" stroke="#180B02" stroke-width="2"/>
<path d="M59.4723 119.552L43.4907 110.551C42.8241 110.175 42 110.657 42 111.422V123.663C42 124.746 42.5838 125.745 43.5274 126.276L59.5091 135.281C60.1757 135.656 61 135.175 61 134.41V122.166C61 121.083 60.4161 120.084 59.4723 119.552Z" fill="#180B02" stroke="#180B02" stroke-width="2"/>
<path d="M59.4723 87.5521L43.4907 78.5506C42.8241 78.1751 42 78.6568 42 79.4219V91.6625C42 92.7456 42.5838 93.7445 43.5274 94.2762L59.5091 103.281C60.1757 103.656 61 103.175 61 102.41V90.166C61 89.0828 60.4161 88.0837 59.4723 87.5521Z" fill="#180B02" stroke="#180B02" stroke-width="2"/>
<path d="M114.528 69.5521L130.509 60.5506C131.176 60.1751 132 60.6568 132 61.4219V73.6625C132 74.7456 131.416 75.7445 130.473 76.2762L114.491 85.2808C113.824 85.6564 113 85.1747 113 84.4096V72.166C113 71.0828 113.584 70.0837 114.528 69.5521Z" fill="#180B02" stroke="#180B02" stroke-width="2"/>
<path d="M82.5277 87.5521L98.5093 78.5506C99.1759 78.1751 100 78.6568 100 79.4219V91.6625C100 92.7456 99.4162 93.7445 98.4726 94.2762L82.4909 103.281C81.8243 103.656 81 103.175 81 102.41V90.166C81 89.0828 81.5839 88.0837 82.5277 87.5521Z" fill="#180B02" stroke="#180B02" stroke-width="2"/>
<path d="M141 42.3376V111.662C141 112.745 140.416 113.744 139.472 114.276L116.491 127.223C115.824 127.598 115 127.116 115 126.351V104.316C115 102.021 112.528 100.576 110.528 101.702L101.547 106.759C99.9735 107.645 99 109.31 99 111.116V135.316C99 136.399 98.4165 137.398 97.4732 137.929L73.4544 151.469C71.9307 152.327 70.0689 152.328 68.545 151.469L2.52746 114.276C1.58381 113.745 1 112.746 1 111.662V42.3376C1 41.2545 1.58382 40.2555 2.52747 39.7239L69.5275 1.97737C70.4416 1.46236 71.5584 1.46236 72.4725 1.97737L139.473 39.7239C140.416 40.2555 141 41.2545 141 42.3376Z" stroke="#180B02" stroke-width="2"/>
</g>
<defs>
<clipPath id="clip0_664_12">
<rect width="142" height="154" fill="white"/>
</clipPath>
</defs>
</svg>
